<svg width="459" height="153" viewBox="0 0 459 153" fill="none" xmlns="http://www.w3.org/2000/svg">
<path d="M2.46641 126.831C0.822309 126.831 0.000257734 126.244 0.000257734 125.069C0.000257734 123.777 1.17462 122.955 3.52334 122.603L7.04641 122.075C9.63 121.722 11.3915 121.135 12.331 120.313C13.388 119.374 14.1513 117.671 14.621 115.205L38.578 11.6262C39.0477 9.62978 39.1064 8.10311 38.7541 7.04619C38.4018 5.98926 36.8751 5.22593 34.1741 4.75619L30.651 4.05157C29.1244 3.69926 28.361 3.05336 28.361 2.11388C28.361 0.704647 29.418 3.03606e-05 31.5318 3.03606e-05H65.8818C75.629 3.03606e-05 83.0862 2.64234 88.2533 7.92696C93.4205 13.2116 96.0041 19.8467 96.0041 27.8323C96.0041 35.2308 94.0664 42.1008 90.191 48.4423C86.4331 54.6664 81.1485 59.7162 74.3372 63.5916C67.6433 67.467 59.7751 69.4047 50.7326 69.4047H40.3395C38.4605 69.4047 37.2274 70.4029 36.6403 72.3993L26.7756 114.5C26.1885 117.084 26.3059 118.845 27.128 119.785C28.0674 120.724 30.0051 121.37 32.941 121.722L41.3964 122.779C42.4533 122.897 42.9818 123.484 42.9818 124.541C42.9818 126.067 41.9249 126.831 39.811 126.831H2.46641ZM40.6918 55.3123C39.9872 58.3657 40.2808 60.7731 41.5726 62.5347C42.9818 64.1788 45.859 65.0008 50.2041 65.0008C56.0759 65.0008 61.0669 63.7677 65.1772 61.3016C69.4049 58.8354 72.8105 55.6647 75.3941 51.7893C78.0951 47.7964 80.0328 43.5688 81.2072 39.1062C82.499 34.5262 83.1449 30.1811 83.1449 26.0708C83.1449 19.6118 81.4421 14.3859 78.0364 10.3931C74.6308 6.40029 69.6398 4.40387 63.0633 4.40387C55.8998 4.40387 51.7895 6.75259 50.7326 11.45L40.6918 55.3123ZM125.826 50.4693H130.486V60.6909H123.872C117.96 60.6909 113.15 63.0459 109.442 67.7559C105.734 72.4658 103.88 78.5286 103.88 85.9443V126.831H94.1093V51.6718H103.73V65.6514C105.934 60.741 108.941 56.9831 112.749 54.3776C116.557 51.772 120.916 50.4693 125.826 50.4693ZM161.804 128.184C154.689 128.184 148.326 126.58 142.714 123.373C137.102 120.067 132.642 115.507 129.335 109.695C126.129 103.782 124.525 96.9676 124.525 89.2513C124.525 83.5392 125.427 78.3282 127.231 73.6183C129.135 68.8081 131.74 64.6994 135.047 61.2922C138.455 57.7848 142.413 55.1291 146.923 53.3253C151.532 51.4213 156.493 50.4693 161.804 50.4693C168.919 50.4693 175.283 52.1228 180.894 55.4298C186.506 58.6366 190.916 63.1461 194.122 68.9584C197.429 74.7707 199.083 81.535 199.083 89.2513C199.083 95.0636 198.131 100.375 196.227 105.185C194.423 109.895 191.818 114.004 188.41 117.511C185.103 120.918 181.145 123.574 176.535 125.478C172.026 127.282 167.115 128.184 161.804 128.184ZM161.804 119.165C165.712 119.165 169.32 118.513 172.627 117.21C176.034 115.807 178.94 113.803 181.345 111.198C183.851 108.592 185.755 105.436 187.057 101.728C188.46 98.0199 189.162 93.8611 189.162 89.2513C189.162 83.1384 187.959 77.8773 185.554 73.4679C183.249 68.9584 180.043 65.5011 175.934 63.096C171.825 60.6909 167.115 59.4884 161.804 59.4884C157.896 59.4884 154.238 60.1899 150.831 61.5928C147.524 62.8956 144.618 64.8497 142.112 67.4552C139.707 70.0607 137.803 73.2174 136.4 76.9252C135.098 80.5329 134.446 84.6416 134.446 89.2513C134.446 95.3643 135.599 100.675 137.903 105.185C140.309 109.695 143.565 113.152 147.674 115.557C151.883 117.962 156.593 119.165 161.804 119.165ZM214.945 132.994C214.945 139.207 213.492 143.917 210.586 147.124C207.68 150.431 203.621 152.084 198.41 152.084H194.953V142.915H197.508C200.013 142.915 201.917 142.063 203.22 140.359C204.523 138.656 205.174 136.05 205.174 132.543V51.6718H214.945V132.994ZM209.984 34.2349C207.88 34.2349 206.126 33.5335 204.723 32.1305C203.32 30.6273 202.619 28.7734 202.619 26.5687C202.619 24.4643 203.32 22.7106 204.723 21.3076C206.126 19.8044 207.88 19.0528 209.984 19.0528C212.189 19.0528 213.993 19.8044 215.396 21.3076C216.899 22.7106 217.651 24.4643 217.651 26.5687C217.651 28.7734 216.899 30.6273 215.396 32.1305C213.993 33.5335 212.189 34.2349 209.984 34.2349ZM256.232 128.184C249.518 128.184 243.505 126.58 238.194 123.373C232.883 120.067 228.674 115.507 225.567 109.695C222.561 103.782 221.057 96.9676 221.057 89.2513C221.057 83.2386 221.909 77.8773 223.613 73.1673C225.417 68.3571 227.922 64.2985 231.129 60.9915C234.336 57.5843 238.094 54.9788 242.403 53.175C246.712 51.3712 251.422 50.4693 256.533 50.4693C263.046 50.4693 268.859 52.0226 273.969 55.1291C279.08 58.2357 283.089 62.645 285.995 68.3571C289.001 73.969 290.504 80.583 290.504 88.1991C290.504 88.8004 290.504 89.3515 290.504 89.8526C290.504 90.3537 290.454 90.8547 290.354 91.3558H226.77V83.0883H284.492L280.283 89.8526C280.283 89.6522 280.283 89.4517 280.283 89.2513C280.283 89.0509 280.283 88.9006 280.283 88.8004C280.283 78.9796 277.978 71.6641 273.368 66.8539C268.859 61.9436 263.197 59.4884 256.382 59.4884C252.574 59.4884 249.117 60.1899 246.01 61.5928C242.904 62.8956 240.198 64.8497 237.893 67.4552C235.688 70.0607 233.985 73.2174 232.782 76.9252C231.58 80.5329 230.978 84.6416 230.978 89.2513C230.978 95.5647 232.131 100.976 234.436 105.486C236.741 109.895 239.797 113.302 243.605 115.707C247.513 118.012 251.873 119.165 256.683 119.165C260.29 119.165 263.648 118.613 266.754 117.511C269.861 116.309 272.667 114.455 275.172 111.949C277.777 109.344 279.932 105.887 281.636 101.577L290.053 105.486C287.648 111.198 284.642 115.707 281.034 119.014C277.427 122.321 273.468 124.676 269.159 126.079C264.95 127.482 260.641 128.184 256.232 128.184ZM328.583 128.033C321.869 128.033 315.806 126.38 310.395 123.073C305.083 119.766 300.824 115.206 297.617 109.394C294.511 103.481 292.958 96.7672 292.958 89.2513C292.958 83.5392 293.86 78.3282 295.663 73.6183C297.467 68.9083 299.972 64.8497 303.179 61.4425C306.486 57.9351 310.294 55.2294 314.603 53.3253C318.913 51.4213 323.572 50.4693 328.583 50.4693C333.393 50.4693 337.953 51.271 342.262 52.8744C346.671 54.3776 350.68 56.9831 354.287 60.6909C357.895 64.3988 360.801 69.4595 363.006 75.873L354.287 79.4807C351.782 72.1652 348.325 67.0043 343.915 63.9979C339.606 60.9915 334.495 59.4884 328.583 59.4884C325.076 59.4884 321.769 60.1397 318.662 61.4425C315.555 62.7453 312.8 64.6994 310.395 67.3049C308.09 69.8102 306.236 72.9168 304.833 76.6246C303.53 80.3325 302.879 84.5414 302.879 89.2513C302.879 95.5647 304.031 100.976 306.336 105.486C308.741 109.895 311.898 113.252 315.806 115.557C319.714 117.862 323.973 119.014 328.583 119.014C334.495 119.014 339.606 117.511 343.915 114.505C348.325 111.498 351.782 106.337 354.287 99.022L363.006 102.63C360.801 109.043 357.895 114.104 354.287 117.812C350.68 121.52 346.671 124.175 342.262 125.779C337.953 127.282 333.393 128.033 328.583 128.033ZM391.846 126.831C387.436 126.831 383.779 125.979 380.872 124.275C377.966 122.472 375.812 120.067 374.409 117.06C373.006 113.954 372.304 110.496 372.304 106.688V34.2349L382.075 27.0197V105.636C382.075 109.544 382.877 112.601 384.48 114.805C386.184 116.91 388.889 117.962 392.597 117.962H400.113V126.831H391.846ZM400.113 60.5406H358.024V51.6718H400.113V60.5406ZM429.682 128.184C424.772 128.184 420.162 127.432 415.853 125.929C411.644 124.426 407.986 121.971 404.88 118.563C401.773 115.056 399.468 110.396 397.965 104.584L406.533 102.179C407.536 106.287 409.189 109.594 411.494 112.1C413.899 114.605 416.655 116.409 419.761 117.511C422.868 118.613 426.125 119.165 429.532 119.165C435.445 119.165 440.154 118.012 443.662 115.707C447.169 113.402 448.923 110.546 448.923 107.139C448.923 103.732 447.42 101.126 444.414 99.3226C441.407 97.4186 436.848 95.715 430.735 94.2118L423.068 92.2577C415.152 90.2534 409.49 87.3974 406.082 83.6896C402.675 79.9817 400.972 75.6225 400.972 70.6119C400.972 66.7036 402.074 63.2463 404.279 60.24C406.583 57.2336 409.74 54.8786 413.749 53.175C417.757 51.3712 422.367 50.4693 427.578 50.4693C432.388 50.4693 436.948 51.3211 441.257 53.0247C445.566 54.7283 449.224 57.3338 452.23 60.8412C455.236 64.3486 457.14 68.8582 457.942 74.3698L449.224 76.1737C448.021 69.9605 445.366 65.6514 441.257 63.2463C437.248 60.8412 432.689 59.6387 427.578 59.6387C422.868 59.6387 418.96 60.6408 415.853 62.645C412.747 64.6493 411.193 67.3049 411.193 70.6119C411.193 73.1172 411.995 75.2216 413.598 76.9252C415.302 78.5286 417.456 79.8815 420.062 80.9838C422.768 81.986 425.624 82.8879 428.63 83.6896L436.296 85.6437C444.113 87.6479 449.825 90.3537 453.433 93.7609C457.14 97.0679 458.994 101.477 458.994 106.989C458.994 110.997 457.792 114.605 455.387 117.812C452.982 121.019 449.574 123.574 445.165 125.478C440.756 127.282 435.595 128.184 429.682 128.184Z" fill="#363636"/>
</svg>
