<svg width="568" height="130" viewBox="0 0 568 130" fill="none" xmlns="http://www.w3.org/2000/svg">
<path d="M2.11362 128.592C0.704386 128.592 -0.000229141 128.005 -0.000229141 126.831C-0.000229141 125.774 0.939258 125.01 2.81823 124.541L5.63669 124.012C7.98541 123.543 10.0405 122.427 11.8021 120.665C13.4462 118.786 15.0316 116.203 16.5582 112.915L69.2282 2.81842C69.8154 1.64407 70.4026 0.880733 70.9898 0.528423C71.577 0.17612 72.1054 -3.18938e-05 72.5752 -3.18938e-05C73.1623 -3.18938e-05 73.6321 0.17612 73.9844 0.528423C74.4541 0.880733 74.689 1.64407 74.689 2.81842L76.6267 114.5C76.7441 117.788 77.1552 120.078 77.8598 121.37C78.5644 122.544 80.0323 123.425 82.2636 124.012L84.5536 124.541C85.9629 124.893 86.6675 125.598 86.6675 126.655C86.6675 127.946 85.6693 128.592 83.6729 128.592H54.6075C53.0808 128.592 52.3175 128.005 52.3175 126.831C52.3175 125.539 53.4918 124.776 55.8405 124.541L59.3636 124.188C61.36 123.954 62.7105 123.308 63.4152 122.251C64.2372 121.194 64.6482 119.374 64.6482 116.79L64.2959 89.4861C64.2959 86.4328 62.7105 84.9061 59.5398 84.9061H40.6913C37.638 84.9061 35.348 86.4328 33.8213 89.4861L22.3713 113.091C19.2005 119.785 20.2575 123.484 25.5421 124.188L28.0082 124.541C29.7698 124.776 30.6505 125.48 30.6505 126.655C30.6505 127.946 29.6523 128.592 27.6559 128.592H2.11362ZM41.3959 79.6215H61.1252C63.1216 79.6215 64.1198 78.6233 64.1198 76.6269L63.7675 28.5369H62.8867L39.8105 76.6269C39.3408 77.4489 39.2821 78.1536 39.6344 78.7407C39.9867 79.3279 40.5739 79.6215 41.3959 79.6215ZM136.168 129.795C130.856 129.795 126.146 128.743 122.038 126.638C118.029 124.534 114.622 121.678 111.816 118.07C109.11 114.462 107.056 110.354 105.653 105.744C104.25 101.034 103.549 96.1236 103.549 91.0128C103.549 85.902 104.25 81.0417 105.653 76.432C107.056 71.722 109.11 67.5632 111.816 63.9556C114.622 60.3479 118.029 57.4919 122.038 55.3874C126.146 53.283 130.856 52.2308 136.168 52.2308C142.781 52.2308 148.744 53.8342 154.055 57.0409C159.467 60.2477 163.726 64.7573 166.832 70.5696C169.939 76.3819 171.492 83.1963 171.492 91.0128C171.492 96.8251 170.59 102.136 168.787 106.946C166.983 111.656 164.477 115.715 161.271 119.122C158.064 122.529 154.306 125.185 149.997 127.089C145.788 128.893 141.178 129.795 136.168 129.795ZM98.7383 128.592V23.3697H108.509V81.0918L106.254 91.0128L108.509 102.287V128.592H98.7383ZM134.965 120.776C138.873 120.776 142.431 120.124 145.638 118.822C148.945 117.419 151.801 115.414 154.206 112.809C156.611 110.203 158.465 107.097 159.767 103.489C161.07 99.7813 161.722 95.6225 161.722 91.0128C161.722 81.7933 159.216 74.5279 154.206 69.2167C149.195 63.9055 142.781 61.2498 134.965 61.2498C131.057 61.2498 127.449 61.9513 124.142 63.3543C120.935 64.657 118.129 66.6112 115.724 69.2167C113.319 71.8222 111.465 74.9789 110.162 78.6867C108.86 82.2944 108.208 86.403 108.208 91.0128C108.208 100.232 110.714 107.498 115.724 112.809C120.735 118.12 127.148 120.776 134.965 120.776ZM211.206 129.945C204.09 129.945 197.727 128.342 192.115 125.135C186.503 121.828 182.044 117.268 178.737 111.456C175.53 105.544 173.927 98.7291 173.927 91.0128C173.927 85.3007 174.829 80.0897 176.632 75.3797C178.536 70.5696 181.142 66.4609 184.449 63.0537C187.856 59.5462 191.815 56.8906 196.324 55.0868C200.934 53.1828 205.894 52.2308 211.206 52.2308C218.321 52.2308 224.684 53.8843 230.296 57.1913C235.908 60.398 240.317 64.9076 243.524 70.7199C246.831 76.5322 248.484 83.2965 248.484 91.0128C248.484 96.8251 247.532 102.136 245.628 106.946C243.825 111.656 241.219 115.765 237.812 119.273C234.505 122.68 230.546 125.335 225.937 127.239C221.427 129.043 216.517 129.945 211.206 129.945ZM211.206 120.926C215.114 120.926 218.721 120.275 222.028 118.972C225.436 117.569 228.342 115.565 230.747 112.959C233.252 110.354 235.156 107.197 236.459 103.489C237.862 99.7813 238.563 95.6225 238.563 91.0128C238.563 84.8999 237.361 79.6387 234.956 75.2294C232.651 70.7199 229.444 67.2626 225.335 64.8575C221.227 62.4524 216.517 61.2498 211.206 61.2498C207.297 61.2498 203.64 61.9513 200.232 63.3543C196.925 64.657 194.019 66.6112 191.514 69.2167C189.109 71.8222 187.205 74.9789 185.802 78.6867C184.499 82.2944 183.848 86.403 183.848 91.0128C183.848 97.1257 185 102.437 187.305 106.946C189.71 111.456 192.967 114.913 197.076 117.318C201.285 119.724 205.994 120.926 211.206 120.926ZM285.241 129.795C279.228 129.795 273.816 128.592 269.006 126.187C264.296 123.782 260.588 120.225 257.883 115.515C255.177 110.704 253.824 104.892 253.824 98.0777V53.4333H263.595V97.1758C263.595 104.892 265.599 110.755 269.608 114.763C273.716 118.671 278.927 120.625 285.241 120.625C291.654 120.625 296.815 118.671 300.723 114.763C304.732 110.755 306.736 104.892 306.736 97.1758V53.4333H316.507V98.0777C316.507 104.892 315.154 110.704 312.448 115.515C309.742 120.225 306.035 123.782 301.325 126.187C296.715 128.592 291.354 129.795 285.241 129.795ZM352.348 128.592C347.939 128.592 344.281 127.74 341.375 126.037C338.469 124.233 336.314 121.828 334.911 118.822C333.508 115.715 332.807 112.258 332.807 108.45V35.9964L342.578 28.7812V107.397C342.578 111.306 343.379 114.362 344.983 116.567C346.686 118.671 349.392 119.724 353.1 119.724H360.616V128.592H352.348ZM360.616 62.3021H318.527V53.4333H360.616V62.3021ZM424.683 126.831C424.096 126.831 423.567 126.655 423.097 126.302C422.628 125.95 422.393 125.187 422.393 124.012L420.631 16.5584C420.631 15.7364 420.338 15.3254 419.751 15.3254C419.281 15.3254 418.928 15.6777 418.694 16.3823L392.799 113.443C391.977 116.731 391.918 119.256 392.623 121.018C393.445 122.662 395.265 123.719 398.084 124.188L400.197 124.541C401.607 124.658 402.311 125.304 402.311 126.478C402.311 127.888 401.196 128.592 398.964 128.592H374.127C372.365 128.592 371.484 128.005 371.484 126.831C371.484 125.539 372.424 124.776 374.303 124.541L376.769 124.188C379.94 123.719 382.288 122.662 383.815 121.018C385.342 119.256 386.516 116.731 387.338 113.443L413.937 13.3877C414.525 10.9215 414.525 9.2774 413.937 8.45535C413.35 7.6333 411.765 6.98741 409.181 6.51766L406.187 5.9892C404.308 5.63689 403.368 4.87355 403.368 3.69919C403.368 2.4074 404.425 1.7615 406.539 1.7615H427.677C431.083 1.7615 432.786 3.52304 432.786 7.04612L433.843 94.5946C433.843 95.4166 434.078 95.8864 434.547 96.0038C435.135 96.0038 435.604 95.6515 435.957 94.9469L478.586 6.16535C479.995 3.22945 482.226 1.7615 485.28 1.7615H506.594C508.004 1.7615 508.708 2.34868 508.708 3.52304C508.708 4.6974 507.71 5.46073 505.714 5.81304L501.486 6.51766C498.902 6.98741 497.141 7.6333 496.201 8.45535C495.262 9.2774 494.498 10.9215 493.911 13.3877L473.477 116.966C473.008 119.432 473.008 121.076 473.477 121.898C474.065 122.72 475.533 123.366 477.881 123.836L480.876 124.365C482.05 124.482 482.814 124.776 483.166 125.245C483.518 125.598 483.694 126.009 483.694 126.478C483.694 127.888 482.637 128.592 480.524 128.592H449.168C447.524 128.592 446.702 128.005 446.702 126.831C446.702 125.656 447.642 124.893 449.521 124.541L453.748 123.836C456.332 123.366 458.093 122.72 459.033 121.898C460.09 121.076 460.853 119.432 461.323 116.966L481.228 17.0869C481.463 16.2648 481.287 15.7951 480.7 15.6777C480.113 15.4428 479.643 15.6777 479.291 16.3823L427.854 124.012C427.384 125.187 426.855 125.95 426.268 126.302C425.798 126.655 425.27 126.831 424.683 126.831ZM532.82 129.945C526.106 129.945 520.093 128.342 514.782 125.135C509.471 121.828 505.262 117.268 502.155 111.456C499.149 105.544 497.646 98.7291 497.646 91.0128C497.646 85.0001 498.497 79.6387 500.201 74.9288C502.005 70.1186 504.51 66.06 507.717 62.753C510.924 59.3458 514.682 56.7403 518.991 54.9365C523.3 53.1327 528.01 52.2308 533.121 52.2308C539.634 52.2308 545.447 53.7841 550.558 56.8906C555.668 59.9972 559.677 64.4065 562.583 70.1186C565.589 75.7305 567.093 82.3445 567.093 89.9606C567.093 90.5618 567.093 91.113 567.093 91.6141C567.093 92.1151 567.042 92.6162 566.942 93.1172H503.358V84.8498H561.08L556.871 91.6141C556.871 91.4136 556.871 91.2132 556.871 91.0128C556.871 90.8124 556.871 90.6621 556.871 90.5618C556.871 80.7411 554.566 73.4256 549.956 68.6154C545.447 63.705 539.785 61.2498 532.97 61.2498C529.162 61.2498 525.705 61.9513 522.598 63.3543C519.492 64.657 516.786 66.6112 514.481 69.2167C512.277 71.8222 510.573 74.9789 509.37 78.6867C508.168 82.2944 507.567 86.403 507.567 91.0128C507.567 97.3262 508.719 102.738 511.024 107.247C513.329 111.656 516.385 115.064 520.193 117.469C524.102 119.774 528.461 120.926 533.271 120.926C536.879 120.926 540.236 120.375 543.342 119.273C546.449 118.07 549.255 116.216 551.76 113.711C554.366 111.105 556.52 107.648 558.224 103.339L566.642 107.247C564.236 112.959 561.23 117.469 557.622 120.776C554.015 124.083 550.056 126.438 545.747 127.841C541.538 129.244 537.229 129.945 532.82 129.945Z" fill="#363636"/>
</svg>
