<svg width="994" height="163" viewBox="0 0 994 163" fill="none" xmlns="http://www.w3.org/2000/svg">
<path d="M2.54366 130.823C0.847816 130.823 -0.000107207 130.217 -0.000107207 129.006C-0.000107207 127.673 1.21121 126.825 3.63385 126.462L7.26781 125.917C9.93271 125.553 11.7497 124.948 12.7187 124.1C13.8089 123.131 14.5963 121.374 15.0808 118.83L39.7917 11.9921C40.3974 9.44834 40.3974 7.7525 39.7917 6.90457C39.1861 6.05665 37.6719 5.39043 35.2493 4.9059L31.6153 4.17911C30.0406 3.81571 29.2532 3.14948 29.2532 2.18043C29.2532 0.726849 30.3434 5.58367e-05 32.5238 5.58367e-05H69.0451C79.4624 5.58367e-05 87.6994 3.87628 93.756 11.6287C99.9337 19.26 103.023 30.6464 103.023 45.7879C103.023 56.932 101.266 67.6522 97.7533 77.9484C94.2405 88.1235 89.5164 97.2084 83.5809 105.203C77.6454 113.077 70.8621 119.315 63.2307 123.918C55.7206 128.521 47.847 130.823 39.61 130.823H2.54366ZM40.5185 126.098C47.423 126.098 53.9036 123.555 59.9602 118.467C66.0168 113.38 71.3466 106.475 75.9496 97.7535C80.5526 88.9109 84.126 78.9781 86.6698 67.9551C89.3347 56.9321 90.6671 45.5457 90.6671 33.7959C90.6671 24.1053 88.6684 16.8374 84.6711 11.9921C80.6737 7.14684 75.1017 4.7242 67.9549 4.7242C58.87 4.7242 53.2979 9.14552 51.2387 17.9881L29.4349 112.834C28.3448 117.68 28.7687 121.132 30.7068 123.191C32.7661 125.129 36.0366 126.098 40.5185 126.098ZM132.482 132.458C124.366 132.458 117.098 130.52 110.678 126.643C104.258 122.646 99.1705 117.135 95.4154 110.109C91.7814 102.962 89.9645 94.7252 89.9645 85.398C89.9645 78.1301 90.9941 71.6496 93.0533 65.9564C95.2337 60.142 98.262 55.2362 102.138 51.2388C106.014 47.1204 110.557 43.9709 115.766 41.7906C120.974 39.6102 126.667 38.52 132.845 38.52C140.719 38.52 147.744 40.3975 153.922 44.1526C160.1 47.9077 164.945 53.2375 168.458 60.142C172.092 66.9254 173.909 74.9201 173.909 84.1262C173.909 84.853 173.909 85.5192 173.909 86.1248C173.909 86.7305 173.848 87.3362 173.727 87.9418H96.869V77.9484H166.641L161.553 86.1248C161.553 85.8826 161.553 85.6403 161.553 85.398C161.553 85.1558 161.553 84.9741 161.553 84.853C161.553 72.982 158.767 64.1394 153.195 58.3251C147.744 52.3896 140.9 49.4219 132.663 49.4219C128.06 49.4219 123.881 50.2698 120.126 51.9656C116.371 53.5404 113.101 55.9024 110.315 59.0519C107.65 62.2013 105.59 66.0169 104.137 70.4988C102.683 74.8596 101.957 79.826 101.957 85.398C101.957 93.0294 103.35 99.5705 106.136 105.021C108.922 110.351 112.616 114.47 117.219 117.377C121.943 120.163 127.213 121.556 133.027 121.556C137.388 121.556 141.446 120.89 145.201 119.557C148.956 118.104 152.347 115.863 155.376 112.834C158.525 109.685 161.129 105.506 163.189 100.297L173.364 105.021C170.457 111.926 166.823 117.377 162.462 121.374C158.101 125.372 153.316 128.218 148.108 129.914C143.02 131.61 137.812 132.458 132.482 132.458ZM209.58 132.458C203.644 132.458 198.072 131.549 192.864 129.732C187.776 127.915 183.355 124.948 179.6 120.829C175.845 116.59 173.059 110.957 171.242 103.931L181.598 101.024C182.81 105.99 184.808 109.988 187.594 113.016C190.502 116.044 193.833 118.225 197.588 119.557C201.343 120.89 205.28 121.556 209.398 121.556C216.545 121.556 222.238 120.163 226.478 117.377C230.717 114.591 232.837 111.139 232.837 107.02C232.837 102.902 231.02 99.7522 227.386 97.5718C223.752 95.2703 218.241 93.2111 210.852 91.3941L201.585 89.032C192.016 86.6094 185.172 83.1571 181.053 78.6752C176.935 74.1933 174.876 68.9241 174.876 62.8675C174.876 58.1434 176.208 53.9643 178.873 50.3304C181.659 46.6964 185.475 43.8498 190.32 41.7906C195.165 39.6102 200.737 38.52 207.036 38.52C212.85 38.52 218.362 39.5496 223.571 41.6089C228.779 43.6681 233.201 46.8175 236.835 51.0572C240.468 55.2968 242.77 60.7477 243.739 67.41L233.201 69.5903C231.747 62.0802 228.537 56.8715 223.571 53.9643C218.725 51.0572 213.214 49.6036 207.036 49.6036C201.343 49.6036 196.619 50.8149 192.864 53.2375C189.109 55.6602 187.231 58.8702 187.231 62.8675C187.231 65.8958 188.2 68.4396 190.138 70.4988C192.197 72.4369 194.802 74.0722 197.951 75.4047C201.222 76.616 204.674 77.7062 208.308 78.6752L217.575 81.0373C227.023 83.4599 233.927 86.7305 238.288 90.849C242.77 94.8463 245.011 100.176 245.011 106.838C245.011 111.684 243.557 116.044 240.65 119.921C237.743 123.797 233.625 126.886 228.295 129.187C222.965 131.368 216.727 132.458 209.58 132.458ZM260.093 39.9736V130.823H248.283V39.9736H260.093ZM254.097 18.8966C251.553 18.8966 249.434 18.0487 247.738 16.3529C246.042 14.5359 245.194 12.2949 245.194 9.63004C245.194 7.08627 246.042 4.96646 247.738 3.27062C249.434 1.45364 251.553 0.545153 254.097 0.545153C256.762 0.545153 258.942 1.45364 260.638 3.27062C262.455 4.96646 263.364 7.08627 263.364 9.63004C263.364 12.2949 262.455 14.5359 260.638 16.3529C258.942 18.0487 256.762 18.8966 254.097 18.8966ZM307.092 162.075C296.553 162.075 287.953 160.984 281.291 158.804C274.629 156.624 269.723 153.656 266.573 149.901C263.424 146.267 261.849 142.209 261.849 137.727C261.849 133.851 263.182 130.277 265.847 127.007C268.633 123.736 272.569 121.314 277.657 119.739C273.296 118.406 269.904 116.59 267.482 114.288C265.059 111.865 263.848 108.958 263.848 105.567C263.848 100.963 265.604 97.2084 269.117 94.3012C272.63 91.3941 277.536 89.5165 283.835 88.6686C279.353 86.246 275.84 83.1571 273.296 79.402C270.752 75.5258 269.48 71.165 269.48 66.3198C269.48 60.99 271.055 56.2658 274.205 52.1473C277.475 47.9077 281.897 44.5766 287.469 42.154C293.162 39.7313 299.582 38.52 306.729 38.52C314.36 38.52 321.507 38.4594 328.169 38.3383C334.831 38.096 341.069 36.5819 346.884 33.7959L350.699 43.9709C346.944 45.5456 343.492 46.6964 340.343 47.4232C337.314 48.0289 334.286 48.3923 331.258 48.5134C335.134 50.4515 338.162 53.1164 340.343 56.5081C342.644 59.7786 343.795 63.4126 343.795 67.41C343.795 72.7398 342.16 77.4639 338.889 81.5824C335.74 85.7009 331.258 88.9714 325.443 91.3941C319.75 93.6956 313.088 94.8463 305.457 94.8463C300.854 94.8463 296.675 94.9675 292.92 95.2097C289.286 95.452 286.197 95.9365 283.653 96.6633C281.109 97.269 279.171 98.1775 277.839 99.3888C276.506 100.6 275.84 102.235 275.84 104.295C275.84 106.596 276.991 108.353 279.292 109.564C281.594 110.775 284.804 111.623 288.922 112.108C293.041 112.471 297.825 112.653 303.276 112.653H308C318.66 112.653 327.2 113.803 333.62 116.105C340.04 118.285 344.643 121.314 347.429 125.19C350.336 128.945 351.79 133.124 351.79 137.727C351.79 141.119 350.881 144.268 349.064 147.175C347.368 150.082 344.703 152.626 341.069 154.807C337.557 157.108 332.954 158.865 327.26 160.076C321.688 161.408 314.966 162.075 307.092 162.075ZM307.092 151.536C319.205 151.536 327.684 150.264 332.53 147.72C337.375 145.298 339.798 141.906 339.798 137.545C339.798 133.063 337.375 129.611 332.53 127.189C327.684 124.766 319.205 123.555 307.092 123.555C299.097 123.555 292.617 124.16 287.65 125.372C282.805 126.462 279.292 128.097 277.112 130.277C274.931 132.337 273.841 134.759 273.841 137.545C273.841 141.664 276.324 144.995 281.291 147.539C286.378 150.204 294.979 151.536 307.092 151.536ZM306.729 84.6713C311.453 84.6713 315.692 84.005 319.447 82.6726C323.324 81.3401 326.352 79.3415 328.532 76.6766C330.834 74.0116 331.985 70.7411 331.985 66.8649C331.985 61.0505 329.562 56.6292 324.717 53.6009C319.871 50.5726 313.875 49.0585 306.729 49.0585C302.004 49.0585 297.704 49.7247 293.828 51.0572C290.073 52.3896 287.045 54.3883 284.743 57.0532C282.563 59.597 281.473 62.8675 281.473 66.8649C281.473 72.8003 283.895 77.2822 288.74 80.3105C293.707 83.2177 299.703 84.6713 306.729 84.6713ZM392.193 38.52C398.977 38.52 404.973 40.0342 410.181 43.0624C415.511 45.9696 419.63 50.1487 422.537 55.5996C425.565 61.0505 427.079 67.4705 427.079 74.8596V130.823H415.269V76.4948C415.269 68.2579 412.967 61.7168 408.364 56.8715C403.882 51.9051 397.947 49.4219 390.558 49.4219C382.442 49.4219 375.84 51.9051 370.753 56.8715C365.665 61.7168 363.122 68.2579 363.122 76.4948V130.823H351.311V39.9736H363.122V60.142L361.305 58.5068C364.212 51.4811 368.512 46.3936 374.205 43.2441C380.02 40.0947 386.016 38.52 392.193 38.52ZM445.304 130.823C443.609 130.823 442.761 130.217 442.761 129.006C442.761 127.673 443.972 126.825 446.395 126.462L450.029 125.917C452.693 125.553 454.51 124.948 455.479 124.1C456.57 123.131 457.357 121.374 457.842 118.83L482.552 11.9921C483.158 9.44834 483.158 7.7525 482.552 6.90457C481.947 6.05665 480.433 5.39043 478.01 4.9059L474.376 4.17911C472.801 3.81571 472.014 3.14948 472.014 2.18043C472.014 0.726849 473.104 5.58367e-05 475.285 5.58367e-05H535.972C539.121 5.58367e-05 540.393 1.39307 539.787 4.17911L534.155 34.341C533.791 36.4002 532.822 37.4298 531.247 37.4298C529.552 37.4298 528.825 36.6425 529.067 35.0677L529.612 28.7083C530.218 22.5306 529.673 17.6853 527.977 14.1725C526.402 10.6597 523.98 8.17646 520.709 6.72288C517.56 5.26929 513.865 4.5425 509.625 4.5425C504.78 4.5425 501.267 5.26929 499.087 6.72288C496.907 8.05532 495.392 10.478 494.545 13.9908L484.551 57.78C484.188 59.4758 484.854 60.3237 486.55 60.3237H495.816C501.146 60.3237 505.022 57.4771 507.445 51.7839L511.442 42.6991C512.048 41.1243 513.017 40.337 514.35 40.337C515.076 40.337 515.621 40.6398 515.985 41.2455C516.469 41.73 516.591 42.4568 516.348 43.4258L506.9 84.3079C506.294 86.3671 505.265 87.3967 503.811 87.3967C502.358 87.3967 501.631 86.6094 501.631 85.0347L501.812 76.1315C501.934 71.8918 501.388 69.1058 500.177 67.7734C499.087 66.4409 497.149 65.7747 494.363 65.7747H485.278C483.461 65.7747 482.371 66.6226 482.007 68.3184L471.469 113.925C470.5 118.285 470.924 121.435 472.741 123.373C474.558 125.311 478.434 126.28 484.369 126.28C488.003 126.28 491.577 125.735 495.09 124.645C498.724 123.433 502.115 121.193 505.265 117.922C508.535 114.651 511.503 109.927 514.168 103.75L518.529 93.5744C519.134 91.9997 520.103 91.2124 521.436 91.2124C523.253 91.2124 523.858 92.242 523.253 94.3012L513.986 126.643C513.259 129.429 511.442 130.823 508.535 130.823H445.304ZM554.16 38.52C560.943 38.52 566.939 40.0342 572.148 43.0624C577.478 45.9696 581.596 50.1487 584.503 55.5996C587.532 61.0505 589.046 67.4705 589.046 74.8596V130.823H577.236V76.4948C577.236 68.2579 574.934 61.7168 570.331 56.8715C565.849 51.9051 559.914 49.4219 552.525 49.4219C544.409 49.4219 537.807 51.9051 532.72 56.8715C527.632 61.7168 525.088 68.2579 525.088 76.4948V130.823H513.278V39.9736H525.088V60.142L523.271 58.5068C526.178 51.4811 530.479 46.3936 536.172 43.2441C541.986 40.0947 547.982 38.52 554.16 38.52ZM635.255 162.075C624.717 162.075 616.116 160.984 609.454 158.804C602.792 156.624 597.886 153.656 594.737 149.901C591.587 146.267 590.013 142.209 590.013 137.727C590.013 133.851 591.345 130.277 594.01 127.007C596.796 123.736 600.733 121.314 605.82 119.739C601.46 118.406 598.068 116.59 595.645 114.288C593.223 111.865 592.011 108.958 592.011 105.567C592.011 100.963 593.768 97.2084 597.28 94.3012C600.793 91.3941 605.699 89.5165 611.998 88.6686C607.516 86.246 604.003 83.1571 601.46 79.402C598.916 75.5258 597.644 71.165 597.644 66.3198C597.644 60.99 599.219 56.2658 602.368 52.1473C605.639 47.9077 610.06 44.5766 615.632 42.154C621.325 39.7313 627.745 38.52 634.892 38.52C642.523 38.52 649.67 38.4594 656.332 38.3383C662.995 38.096 669.233 36.5819 675.047 33.7959L678.863 43.9709C675.108 45.5456 671.655 46.6964 668.506 47.4232C665.478 48.0289 662.449 48.3923 659.421 48.5134C663.297 50.4515 666.326 53.1164 668.506 56.5081C670.808 59.7786 671.958 63.4126 671.958 67.41C671.958 72.7398 670.323 77.4639 667.052 81.5824C663.903 85.7009 659.421 88.9714 653.607 91.3941C647.914 93.6956 641.251 94.8463 633.62 94.8463C629.017 94.8463 624.838 94.9675 621.083 95.2097C617.449 95.452 614.36 95.9365 611.816 96.6633C609.273 97.269 607.334 98.1775 606.002 99.3888C604.67 100.6 604.003 102.235 604.003 104.295C604.003 106.596 605.154 108.353 607.456 109.564C609.757 110.775 612.967 111.623 617.086 112.108C621.204 112.471 625.989 112.653 631.44 112.653H636.164C646.823 112.653 655.363 113.803 661.783 116.105C668.203 118.285 672.806 121.314 675.592 125.19C678.499 128.945 679.953 133.124 679.953 137.727C679.953 141.119 679.044 144.268 677.228 147.175C675.532 150.082 672.867 152.626 669.233 154.807C665.72 157.108 661.117 158.865 655.424 160.076C649.852 161.408 643.129 162.075 635.255 162.075ZM635.255 151.536C647.369 151.536 655.848 150.264 660.693 147.72C665.538 145.298 667.961 141.906 667.961 137.545C667.961 133.063 665.538 129.611 660.693 127.189C655.848 124.766 647.369 123.555 635.255 123.555C627.261 123.555 620.78 124.16 615.814 125.372C610.968 126.462 607.456 128.097 605.275 130.277C603.095 132.337 602.005 134.759 602.005 137.545C602.005 141.664 604.488 144.995 609.454 147.539C614.542 150.204 623.142 151.536 635.255 151.536ZM634.892 84.6713C639.616 84.6713 643.856 84.005 647.611 82.6726C651.487 81.3401 654.515 79.3415 656.696 76.6766C658.997 74.0116 660.148 70.7411 660.148 66.8649C660.148 61.0505 657.725 56.6292 652.88 53.6009C648.035 50.5726 642.039 49.0585 634.892 49.0585C630.168 49.0585 625.868 49.7247 621.991 51.0572C618.236 52.3896 615.208 54.3883 612.906 57.0532C610.726 59.597 609.636 62.8675 609.636 66.8649C609.636 72.8003 612.059 77.2822 616.904 80.3105C621.87 83.2177 627.866 84.6713 634.892 84.6713ZM691.285 39.9736V130.823H679.475V39.9736H691.285ZM685.289 18.8966C682.745 18.8966 680.625 18.0487 678.929 16.3529C677.234 14.5359 676.386 12.2949 676.386 9.63004C676.386 7.08627 677.234 4.96646 678.929 3.27062C680.625 1.45364 682.745 0.545153 685.289 0.545153C687.954 0.545153 690.134 1.45364 691.83 3.27062C693.647 4.96646 694.555 7.08627 694.555 9.63004C694.555 12.2949 693.647 14.5359 691.83 16.3529C690.134 18.0487 687.954 18.8966 685.289 18.8966ZM740.464 38.52C747.247 38.52 753.243 40.0342 758.452 43.0624C763.782 45.9696 767.9 50.1487 770.808 55.5996C773.836 61.0505 775.35 67.4705 775.35 74.8596V130.823H763.54V76.4948C763.54 68.2579 761.238 61.7168 756.635 56.8715C752.153 51.9051 746.218 49.4219 738.829 49.4219C730.713 49.4219 724.111 51.9051 719.024 56.8715C713.936 61.7168 711.392 68.2579 711.392 76.4948V130.823H699.582V39.9736H711.392V60.142L709.575 58.5068C712.483 51.4811 716.783 46.3936 722.476 43.2441C728.29 40.0947 734.286 38.52 740.464 38.52ZM820.833 132.458C812.717 132.458 805.449 130.52 799.029 126.643C792.609 122.646 787.521 117.135 783.766 110.109C780.132 102.962 778.315 94.7252 778.315 85.398C778.315 78.1301 779.345 71.6496 781.404 65.9564C783.585 60.142 786.613 55.2362 790.489 51.2388C794.365 47.1204 798.908 43.9709 804.116 41.7906C809.325 39.6102 815.018 38.52 821.196 38.52C829.07 38.52 836.095 40.3975 842.273 44.1526C848.451 47.9077 853.296 53.2375 856.809 60.142C860.443 66.9254 862.26 74.9201 862.26 84.1262C862.26 84.853 862.26 85.5192 862.26 86.1248C862.26 86.7305 862.199 87.3362 862.078 87.9418H785.22V77.9484H854.992L849.904 86.1248C849.904 85.8826 849.904 85.6403 849.904 85.398C849.904 85.1558 849.904 84.9741 849.904 84.853C849.904 72.982 847.118 64.1394 841.546 58.3251C836.095 52.3896 829.251 49.4219 821.014 49.4219C816.411 49.4219 812.232 50.2698 808.477 51.9656C804.722 53.5404 801.452 55.9024 798.666 59.0519C796.001 62.2013 793.941 66.0169 792.488 70.4988C791.034 74.8596 790.307 79.826 790.307 85.398C790.307 93.0294 791.7 99.5705 794.486 105.021C797.273 110.351 800.967 114.47 805.57 117.377C810.294 120.163 815.563 121.556 821.378 121.556C825.739 121.556 829.796 120.89 833.552 119.557C837.307 118.104 840.698 115.863 843.727 112.834C846.876 109.685 849.48 105.506 851.54 100.297L861.715 105.021C858.808 111.926 855.174 117.377 850.813 121.374C846.452 125.372 841.667 128.218 836.459 129.914C831.371 131.61 826.162 132.458 820.833 132.458ZM904.108 132.458C895.993 132.458 888.725 130.52 882.305 126.643C875.885 122.646 870.797 117.135 867.042 110.109C863.408 102.962 861.591 94.7252 861.591 85.398C861.591 78.1301 862.621 71.6496 864.68 65.9564C866.86 60.142 869.889 55.2362 873.765 51.2388C877.641 47.1204 882.184 43.9709 887.392 41.7906C892.601 39.6102 898.294 38.52 904.472 38.52C912.345 38.52 919.371 40.3975 925.549 44.1526C931.727 47.9077 936.572 53.2375 940.085 60.142C943.719 66.9254 945.536 74.9201 945.536 84.1262C945.536 84.853 945.536 85.5192 945.536 86.1248C945.536 86.7305 945.475 87.3362 945.354 87.9418H868.496V77.9484H938.268L933.18 86.1248C933.18 85.8826 933.18 85.6403 933.18 85.398C933.18 85.1558 933.18 84.9741 933.18 84.853C933.18 72.982 930.394 64.1394 924.822 58.3251C919.371 52.3896 912.527 49.4219 904.29 49.4219C899.687 49.4219 895.508 50.2698 891.753 51.9656C887.998 53.5404 884.727 55.9024 881.941 59.0519C879.276 62.2013 877.217 66.0169 875.764 70.4988C874.31 74.8596 873.583 79.826 873.583 85.398C873.583 93.0294 874.976 99.5705 877.762 105.021C880.548 110.351 884.243 114.47 888.846 117.377C893.57 120.163 898.839 121.556 904.654 121.556C909.014 121.556 913.072 120.89 916.827 119.557C920.582 118.104 923.974 115.863 927.002 112.834C930.152 109.685 932.756 105.506 934.815 100.297L944.99 105.021C942.083 111.926 938.449 117.377 934.089 121.374C929.728 125.372 924.943 128.218 919.734 129.914C914.647 131.61 909.438 132.458 904.108 132.458ZM987.748 38.52H993.38V50.8755H985.386C978.239 50.8755 972.425 53.7221 967.943 59.4153C963.461 65.1085 961.22 72.4369 961.22 81.4007V130.823H949.409V39.9736H961.038V56.8715C963.703 50.936 967.337 46.3936 971.94 43.2441C976.543 40.0947 981.812 38.52 987.748 38.52Z" fill="white" fill-opacity="0.86"/>
</svg>
