<svg width="551" height="291" viewBox="0 0 551 291" fill="none" xmlns="http://www.w3.org/2000/svg">
<path d="M47.7128 130.823C46.017 130.823 45.169 130.217 45.169 129.006C45.169 127.673 46.3804 126.825 48.803 126.462L52.437 125.917C55.1019 125.553 56.9188 124.948 57.8879 124.1C58.9781 123.131 59.7654 121.374 60.25 118.83L84.9609 11.9921C85.5665 9.44834 85.5665 7.7525 84.9609 6.90457C84.3552 6.05665 82.8411 5.39043 80.4184 4.9059L76.7845 4.17911C75.2097 3.81571 74.4224 3.14948 74.4224 2.18043C74.4224 0.726849 75.5126 5.58367e-05 77.693 5.58367e-05H114.214C124.632 5.58367e-05 132.869 3.87628 138.925 11.6287C145.103 19.26 148.192 30.6464 148.192 45.7879C148.192 56.932 146.435 67.6522 142.922 77.9484C139.41 88.1235 134.686 97.2084 128.75 105.203C122.815 113.077 116.031 119.315 108.4 123.918C100.89 128.521 93.0161 130.823 84.7792 130.823H47.7128ZM85.6877 126.098C92.5922 126.098 99.0727 123.555 105.129 118.467C111.186 113.38 116.516 106.475 121.119 97.7535C125.722 88.9109 129.295 78.9781 131.839 67.9551C134.504 56.9321 135.836 45.5457 135.836 33.7959C135.836 24.1053 133.838 16.8374 129.84 11.9921C125.843 7.14684 120.271 4.7242 113.124 4.7242C104.039 4.7242 98.4671 9.14552 96.4078 17.9881L74.6041 112.834C73.5139 117.68 73.9379 121.132 75.876 123.191C77.9352 125.129 81.2058 126.098 85.6877 126.098ZM177.651 132.458C169.535 132.458 162.267 130.52 155.847 126.643C149.427 122.646 144.34 117.135 140.585 110.109C136.951 102.962 135.134 94.7252 135.134 85.398C135.134 78.1301 136.163 71.6496 138.222 65.9564C140.403 60.142 143.431 55.2362 147.307 51.2388C151.184 47.1204 155.726 43.9709 160.935 41.7906C166.143 39.6102 171.837 38.52 178.014 38.52C185.888 38.52 192.914 40.3975 199.091 44.1526C205.269 47.9077 210.114 53.2375 213.627 60.142C217.261 66.9254 219.078 74.9201 219.078 84.1262C219.078 84.853 219.078 85.5192 219.078 86.1248C219.078 86.7305 219.017 87.3362 218.896 87.9418H142.038V77.9484H211.81L206.723 86.1248C206.723 85.8826 206.723 85.6403 206.723 85.398C206.723 85.1558 206.723 84.9741 206.723 84.853C206.723 72.982 203.937 64.1394 198.364 58.3251C192.914 52.3896 186.07 49.4219 177.833 49.4219C173.23 49.4219 169.051 50.2698 165.295 51.9656C161.54 53.5404 158.27 55.9024 155.484 59.0519C152.819 62.2013 150.76 66.0169 149.306 70.4988C147.852 74.8596 147.126 79.826 147.126 85.398C147.126 93.0294 148.519 99.5705 151.305 105.021C154.091 110.351 157.785 114.47 162.388 117.377C167.112 120.163 172.382 121.556 178.196 121.556C182.557 121.556 186.615 120.89 190.37 119.557C194.125 118.104 197.517 115.863 200.545 112.834C203.694 109.685 206.299 105.506 208.358 100.297L218.533 105.021C215.626 111.926 211.992 117.377 207.631 121.374C203.27 125.372 198.486 128.218 193.277 129.914C188.189 131.61 182.981 132.458 177.651 132.458ZM254.749 132.458C248.814 132.458 243.241 131.549 238.033 129.732C232.945 127.915 228.524 124.948 224.769 120.829C221.014 116.59 218.228 110.957 216.411 103.931L226.768 101.024C227.979 105.99 229.978 109.988 232.764 113.016C235.671 116.044 239.002 118.225 242.757 119.557C246.512 120.89 250.449 121.556 254.567 121.556C261.714 121.556 267.407 120.163 271.647 117.377C275.886 114.591 278.006 111.139 278.006 107.02C278.006 102.902 276.189 99.7522 272.555 97.5718C268.921 95.2703 263.41 93.2111 256.021 91.3941L246.754 89.032C237.185 86.6094 230.341 83.1571 226.222 78.6752C222.104 74.1933 220.045 68.9241 220.045 62.8675C220.045 58.1434 221.377 53.9643 224.042 50.3304C226.828 46.6964 230.644 43.8498 235.489 41.7906C240.334 39.6102 245.906 38.52 252.205 38.52C258.02 38.52 263.531 39.5496 268.74 41.6089C273.948 43.6681 278.37 46.8175 282.004 51.0572C285.638 55.2968 287.939 60.7477 288.908 67.41L278.37 69.5903C276.916 62.0802 273.706 56.8715 268.74 53.9643C263.894 51.0572 258.383 49.6036 252.205 49.6036C246.512 49.6036 241.788 50.8149 238.033 53.2375C234.278 55.6602 232.4 58.8702 232.4 62.8675C232.4 65.8958 233.369 68.4396 235.307 70.4988C237.367 72.4369 239.971 74.0722 243.12 75.4047C246.391 76.616 249.843 77.7062 253.477 78.6752L262.744 81.0373C272.192 83.4599 279.096 86.7305 283.457 90.849C287.939 94.8463 290.18 100.176 290.18 106.838C290.18 111.684 288.726 116.044 285.819 119.921C282.912 123.797 278.794 126.886 273.464 129.187C268.134 131.368 261.896 132.458 254.749 132.458ZM305.262 39.9736V130.823H293.452V39.9736H305.262ZM299.266 18.8966C296.723 18.8966 294.603 18.0487 292.907 16.3529C291.211 14.5359 290.363 12.2949 290.363 9.63004C290.363 7.08627 291.211 4.96646 292.907 3.27062C294.603 1.45364 296.723 0.545153 299.266 0.545153C301.931 0.545153 304.112 1.45364 305.808 3.27062C307.624 4.96646 308.533 7.08627 308.533 9.63004C308.533 12.2949 307.624 14.5359 305.808 16.3529C304.112 18.0487 301.931 18.8966 299.266 18.8966ZM352.261 162.075C341.723 162.075 333.122 160.984 326.46 158.804C319.798 156.624 314.892 153.656 311.742 149.901C308.593 146.267 307.018 142.209 307.018 137.727C307.018 133.851 308.351 130.277 311.016 127.007C313.802 123.736 317.739 121.314 322.826 119.739C318.465 118.406 315.074 116.59 312.651 114.288C310.228 111.865 309.017 108.958 309.017 105.567C309.017 100.963 310.773 97.2084 314.286 94.3012C317.799 91.3941 322.705 89.5165 329.004 88.6686C324.522 86.246 321.009 83.1571 318.465 79.402C315.922 75.5258 314.65 71.165 314.65 66.3198C314.65 60.99 316.224 56.2658 319.374 52.1473C322.644 47.9077 327.066 44.5766 332.638 42.154C338.331 39.7313 344.751 38.52 351.898 38.52C359.529 38.52 366.676 38.4594 373.338 38.3383C380 38.096 386.239 36.5819 392.053 33.7959L395.869 43.9709C392.114 45.5456 388.661 46.6964 385.512 47.4232C382.484 48.0289 379.455 48.3923 376.427 48.5134C380.303 50.4515 383.331 53.1164 385.512 56.5081C387.813 59.7786 388.964 63.4126 388.964 67.41C388.964 72.7398 387.329 77.4639 384.058 81.5824C380.909 85.7009 376.427 88.9714 370.613 91.3941C364.919 93.6956 358.257 94.8463 350.626 94.8463C346.023 94.8463 341.844 94.9675 338.089 95.2097C334.455 95.452 331.366 95.9365 328.822 96.6633C326.278 97.269 324.34 98.1775 323.008 99.3888C321.675 100.6 321.009 102.235 321.009 104.295C321.009 106.596 322.16 108.353 324.461 109.564C326.763 110.775 329.973 111.623 334.091 112.108C338.21 112.471 342.995 112.653 348.445 112.653H353.17C363.829 112.653 372.369 113.803 378.789 116.105C385.209 118.285 389.812 121.314 392.598 125.19C395.505 128.945 396.959 133.124 396.959 137.727C396.959 141.119 396.05 144.268 394.233 147.175C392.537 150.082 389.873 152.626 386.239 154.807C382.726 157.108 378.123 158.865 372.43 160.076C366.858 161.408 360.135 162.075 352.261 162.075ZM352.261 151.536C364.374 151.536 372.854 150.264 377.699 147.72C382.544 145.298 384.967 141.906 384.967 137.545C384.967 133.063 382.544 129.611 377.699 127.189C372.854 124.766 364.374 123.555 352.261 123.555C344.266 123.555 337.786 124.16 332.819 125.372C327.974 126.462 324.461 128.097 322.281 130.277C320.101 132.337 319.01 134.759 319.01 137.545C319.01 141.664 321.494 144.995 326.46 147.539C331.548 150.204 340.148 151.536 352.261 151.536ZM351.898 84.6713C356.622 84.6713 360.861 84.005 364.617 82.6726C368.493 81.3401 371.521 79.3415 373.701 76.6766C376.003 74.0116 377.154 70.7411 377.154 66.8649C377.154 61.0505 374.731 56.6292 369.886 53.6009C365.041 50.5726 359.045 49.0585 351.898 49.0585C347.174 49.0585 342.873 49.7247 338.997 51.0572C335.242 52.3896 332.214 54.3883 329.912 57.0532C327.732 59.597 326.642 62.8675 326.642 66.8649C326.642 72.8003 329.064 77.2822 333.91 80.3105C338.876 83.2177 344.872 84.6713 351.898 84.6713ZM437.362 38.52C444.146 38.52 450.142 40.0342 455.35 43.0624C460.68 45.9696 464.799 50.1487 467.706 55.5996C470.734 61.0505 472.248 67.4705 472.248 74.8596V130.823H460.438V76.4948C460.438 68.2579 458.137 61.7168 453.533 56.8715C449.052 51.9051 443.116 49.4219 435.727 49.4219C427.611 49.4219 421.01 51.9051 415.922 56.8715C410.835 61.7168 408.291 68.2579 408.291 76.4948V130.823H396.48V39.9736H408.291V60.142L406.474 58.5068C409.381 51.4811 413.681 46.3936 419.374 43.2441C425.189 40.0947 431.185 38.52 437.362 38.52ZM2.54385 258.823C0.847999 258.823 7.58986e-05 258.217 7.58986e-05 257.006C7.58986e-05 255.673 1.21139 254.825 3.63403 254.462L7.26799 253.917C9.93289 253.553 11.7499 252.948 12.7189 252.1C13.8091 251.131 14.5965 249.374 15.081 246.83L39.7919 139.992C40.3976 137.448 40.3976 135.752 39.7919 134.905C39.1862 134.057 37.6721 133.39 35.2495 132.906L31.6155 132.179C30.0408 131.816 29.2534 131.149 29.2534 130.18C29.2534 128.727 30.3436 128 32.524 128H93.2111C96.3605 128 97.6324 129.393 97.0267 132.179L91.3941 162.341C91.0307 164.4 90.0616 165.43 88.4869 165.43C86.7911 165.43 86.0643 164.642 86.3066 163.068L86.8517 156.708C87.4573 150.531 86.9122 145.685 85.2164 142.172C83.6417 138.66 81.219 136.176 77.9485 134.723C74.799 133.269 71.1045 132.542 66.8649 132.542C62.0196 132.542 58.5068 133.269 56.3264 134.723C54.146 136.055 52.6319 138.478 51.784 141.991L41.7906 185.78C41.4272 187.476 42.0934 188.324 43.7893 188.324H53.0558C58.3857 188.324 62.2619 185.477 64.6845 179.784L68.6819 170.699C69.2875 169.124 70.2566 168.337 71.589 168.337C72.3158 168.337 72.8609 168.64 73.2243 169.245C73.7088 169.73 73.83 170.457 73.5877 171.426L64.1394 212.308C63.5338 214.367 62.5041 215.397 61.0506 215.397C59.597 215.397 58.8702 214.609 58.8702 213.035L59.0519 204.131C59.173 199.892 58.6279 197.106 57.4166 195.773C56.3264 194.441 54.3883 193.775 51.6023 193.775H42.5174C40.7004 193.775 39.6102 194.623 39.2468 196.318L28.7083 241.925C27.7393 246.285 28.1632 249.435 29.9802 251.373C31.7972 253.311 35.6734 254.28 41.6089 254.28C45.2428 254.28 48.8162 253.735 52.3291 252.645C55.963 251.433 59.3547 249.193 62.5041 245.922C65.7747 242.651 68.7424 237.927 71.4073 231.75L75.7681 221.574C76.3737 220 77.3428 219.212 78.6752 219.212C80.4922 219.212 81.0979 220.242 80.4922 222.301L71.2256 254.643C70.4988 257.429 68.6819 258.823 65.7747 258.823H2.54385ZM111.399 166.52C118.183 166.52 124.179 168.034 129.387 171.062C134.717 173.97 138.836 178.149 141.743 183.6C144.771 189.051 146.285 195.471 146.285 202.86V258.823H134.475V204.495C134.475 196.258 132.173 189.717 127.57 184.871C123.089 179.905 117.153 177.422 109.764 177.422C101.648 177.422 95.0465 179.905 89.959 184.871C84.8714 189.717 82.3277 196.258 82.3277 204.495V258.823H70.5173V167.974H82.3277V188.142L80.5107 186.507C83.4178 179.481 87.718 174.394 93.4112 171.244C99.2256 168.095 105.222 166.52 111.399 166.52ZM192.495 290.075C181.956 290.075 173.356 288.984 166.694 286.804C160.031 284.624 155.126 281.656 151.976 277.901C148.827 274.267 147.252 270.209 147.252 265.727C147.252 261.851 148.584 258.277 151.249 255.007C154.035 251.736 157.972 249.314 163.06 247.739C158.699 246.406 155.307 244.59 152.885 242.288C150.462 239.865 149.251 236.958 149.251 233.567C149.251 228.963 151.007 225.208 154.52 222.301C158.033 219.394 162.939 217.517 169.237 216.669C164.756 214.246 161.243 211.157 158.699 207.402C156.155 203.526 154.883 199.165 154.883 194.32C154.883 188.99 156.458 184.266 159.607 180.147C162.878 175.908 167.299 172.577 172.871 170.154C178.565 167.731 184.985 166.52 192.131 166.52C199.763 166.52 206.909 166.459 213.572 166.338C220.234 166.096 226.472 164.582 232.287 161.796L236.102 171.971C232.347 173.546 228.895 174.696 225.745 175.423C222.717 176.029 219.689 176.392 216.661 176.513C220.537 178.451 223.565 181.116 225.745 184.508C228.047 187.779 229.198 191.413 229.198 195.41C229.198 200.74 227.562 205.464 224.292 209.582C221.142 213.701 216.661 216.971 210.846 219.394C205.153 221.696 198.491 222.846 190.859 222.846C186.256 222.846 182.077 222.967 178.322 223.21C174.688 223.452 171.6 223.937 169.056 224.663C166.512 225.269 164.574 226.177 163.241 227.389C161.909 228.6 161.243 230.235 161.243 232.295C161.243 234.596 162.393 236.353 164.695 237.564C166.996 238.775 170.206 239.623 174.325 240.108C178.443 240.471 183.228 240.653 188.679 240.653H193.403C204.063 240.653 212.603 241.803 219.023 244.105C225.443 246.285 230.046 249.314 232.832 253.19C235.739 256.945 237.192 261.124 237.192 265.727C237.192 269.119 236.284 272.268 234.467 275.175C232.771 278.082 230.106 280.626 226.472 282.807C222.959 285.108 218.356 286.865 212.663 288.076C207.091 289.408 200.368 290.075 192.495 290.075ZM192.495 279.536C204.608 279.536 213.087 278.264 217.932 275.72C222.778 273.298 225.2 269.906 225.2 265.545C225.2 261.063 222.778 257.611 217.932 255.189C213.087 252.766 204.608 251.555 192.495 251.555C184.5 251.555 178.019 252.16 173.053 253.372C168.208 254.462 164.695 256.097 162.515 258.277C160.334 260.337 159.244 262.759 159.244 265.545C159.244 269.664 161.727 272.995 166.694 275.539C171.781 278.204 180.382 279.536 192.495 279.536ZM192.131 212.671C196.856 212.671 201.095 212.005 204.85 210.673C208.726 209.34 211.755 207.341 213.935 204.677C216.237 202.012 217.387 198.741 217.387 194.865C217.387 189.051 214.965 184.629 210.119 181.601C205.274 178.573 199.278 177.058 192.131 177.058C187.407 177.058 183.107 177.725 179.231 179.057C175.476 180.39 172.447 182.388 170.146 185.053C167.966 187.597 166.875 190.868 166.875 194.865C166.875 200.8 169.298 205.282 174.143 208.311C179.11 211.218 185.106 212.671 192.131 212.671ZM248.524 167.974V258.823H236.714V167.974H248.524ZM242.528 146.897C239.985 146.897 237.865 146.049 236.169 144.353C234.473 142.536 233.625 140.295 233.625 137.63C233.625 135.086 234.473 132.966 236.169 131.271C237.865 129.454 239.985 128.545 242.528 128.545C245.193 128.545 247.374 129.454 249.069 131.271C250.886 132.966 251.795 135.086 251.795 137.63C251.795 140.295 250.886 142.536 249.069 144.353C247.374 146.049 245.193 146.897 242.528 146.897ZM297.703 166.52C304.487 166.52 310.483 168.034 315.692 171.062C321.021 173.97 325.14 178.149 328.047 183.6C331.075 189.051 332.589 195.471 332.589 202.86V258.823H320.779V204.495C320.779 196.258 318.478 189.717 313.875 184.871C309.393 179.905 303.457 177.422 296.068 177.422C287.952 177.422 281.351 179.905 276.263 184.871C271.176 189.717 268.632 196.258 268.632 204.495V258.823H256.821V167.974H268.632V188.142L266.815 186.507C269.722 179.481 274.022 174.394 279.715 171.244C285.53 168.095 291.526 166.52 297.703 166.52ZM378.072 260.458C369.956 260.458 362.688 258.52 356.268 254.643C349.848 250.646 344.761 245.135 341.006 238.109C337.372 230.962 335.555 222.725 335.555 213.398C335.555 206.13 336.584 199.65 338.644 193.956C340.824 188.142 343.852 183.236 347.729 179.239C351.605 175.12 356.147 171.971 361.356 169.791C366.565 167.61 372.258 166.52 378.436 166.52C386.309 166.52 393.335 168.398 399.512 172.153C405.69 175.908 410.535 181.238 414.048 188.142C417.682 194.925 419.499 202.92 419.499 212.126C419.499 212.853 419.499 213.519 419.499 214.125C419.499 214.73 419.439 215.336 419.318 215.942H342.459V205.948H412.231L407.144 214.125C407.144 213.883 407.144 213.64 407.144 213.398C407.144 213.156 407.144 212.974 407.144 212.853C407.144 200.982 404.358 192.139 398.786 186.325C393.335 180.39 386.491 177.422 378.254 177.422C373.651 177.422 369.472 178.27 365.717 179.966C361.962 181.54 358.691 183.902 355.905 187.052C353.24 190.201 351.181 194.017 349.727 198.499C348.274 202.86 347.547 207.826 347.547 213.398C347.547 221.029 348.94 227.57 351.726 233.021C354.512 238.351 358.207 242.47 362.81 245.377C367.534 248.163 372.803 249.556 378.617 249.556C382.978 249.556 387.036 248.89 390.791 247.557C394.546 246.104 397.938 243.863 400.966 240.834C404.115 237.685 406.72 233.506 408.779 228.297L418.954 233.021C416.047 239.926 412.413 245.377 408.052 249.374C403.692 253.372 398.907 256.218 393.698 257.914C388.611 259.61 383.402 260.458 378.072 260.458ZM461.348 260.458C453.232 260.458 445.964 258.52 439.544 254.643C433.124 250.646 428.037 245.135 424.282 238.109C420.648 230.962 418.831 222.725 418.831 213.398C418.831 206.13 419.86 199.65 421.919 193.956C424.1 188.142 427.128 183.236 431.004 179.239C434.881 175.12 439.423 171.971 444.632 169.791C449.84 167.61 455.534 166.52 461.711 166.52C469.585 166.52 476.611 168.398 482.788 172.153C488.966 175.908 493.811 181.238 497.324 188.142C500.958 194.925 502.775 202.92 502.775 212.126C502.775 212.853 502.775 213.519 502.775 214.125C502.775 214.73 502.714 215.336 502.593 215.942H425.735V205.948H495.507L490.42 214.125C490.42 213.883 490.42 213.64 490.42 213.398C490.42 213.156 490.42 212.974 490.42 212.853C490.42 200.982 487.634 192.139 482.061 186.325C476.611 180.39 469.767 177.422 461.53 177.422C456.927 177.422 452.748 178.27 448.992 179.966C445.237 181.54 441.967 183.902 439.181 187.052C436.516 190.201 434.457 194.017 433.003 198.499C431.549 202.86 430.823 207.826 430.823 213.398C430.823 221.029 432.216 227.57 435.002 233.021C437.788 238.351 441.482 242.47 446.085 245.377C450.809 248.163 456.079 249.556 461.893 249.556C466.254 249.556 470.312 248.89 474.067 247.557C477.822 246.104 481.214 243.863 484.242 240.834C487.391 237.685 489.996 233.506 492.055 228.297L502.23 233.021C499.323 239.926 495.689 245.377 491.328 249.374C486.967 253.372 482.183 256.218 476.974 257.914C471.886 259.61 466.678 260.458 461.348 260.458ZM544.987 166.52H550.62V178.875H542.625C535.478 178.875 529.664 181.722 525.182 187.415C520.7 193.108 518.459 200.437 518.459 209.401V258.823H506.649V167.974H518.278V184.871C520.942 178.936 524.576 174.394 529.179 171.244C533.782 168.095 539.052 166.52 544.987 166.52Z" fill="white" fill-opacity="0.86"/>
</svg>
