<svg width="826" height="129" viewBox="0 0 826 129" fill="none" xmlns="http://www.w3.org/2000/svg">
<path d="M2.46641 126.831C0.822309 126.831 0.000257734 126.243 0.000257734 125.069C0.000257734 123.777 1.17462 122.955 3.52334 122.603L7.04641 122.074C9.63 121.722 11.3915 121.135 12.331 120.313C13.388 119.373 14.1513 117.671 14.621 115.204L38.578 11.6259C39.1651 9.15979 39.1651 7.51569 38.578 6.69363C37.9908 5.87158 36.5228 5.22569 34.1741 4.75594L30.651 4.05133C29.1244 3.69902 28.361 3.05312 28.361 2.11364C28.361 0.704403 29.418 -0.00021378 31.5318 -0.00021378H88.2533C91.1892 -0.00021378 92.3636 1.3503 91.7764 4.05133L86.4918 33.2929C86.1395 35.2893 85.2 36.2875 83.6733 36.2875C82.0292 36.2875 81.3246 35.5242 81.5595 33.9975L81.9118 27.8321C82.499 19.729 81.2072 13.7985 78.0364 10.0406C74.8656 6.2826 70.8141 4.40363 65.8818 4.40363C60.8321 4.40363 57.1328 5.22568 54.7841 6.86978C52.4354 8.51388 50.85 11.0388 50.028 14.4444L40.5156 56.0167C40.1633 57.6608 40.8092 58.4829 42.4533 58.4829H48.971C54.0208 58.4829 57.7787 55.7231 60.2449 50.2036L64.2964 41.5721C64.6487 40.8675 65.001 40.339 65.3533 39.9867C65.7056 39.517 66.2341 39.2821 66.9387 39.2821C67.5259 39.2821 68.0544 39.5757 68.5241 40.1629C68.9939 40.6326 69.1113 41.3372 68.8764 42.2767L59.7164 81.559C59.1292 83.5554 58.1897 84.5536 56.898 84.5536C55.4887 84.5536 54.7841 83.7903 54.7841 82.2636V73.8083C54.7841 69.698 54.2556 66.997 53.1987 65.7052C52.1418 64.4134 50.2628 63.7675 47.5618 63.7675H41.2203C39.4587 63.7675 38.4018 64.5895 38.0495 66.2336L26.7756 114.324C26.1885 116.79 26.1885 118.551 26.7756 119.608C27.3628 120.548 28.8308 121.194 31.1795 121.546L40.5156 122.779C41.9249 122.896 42.6295 123.542 42.6295 124.717C42.6295 126.126 41.6313 126.831 39.6349 126.831H2.46641ZM133.865 126.831V112.25L134.316 110.145V98.1198L133.865 97.2179V80.9836C133.865 75.5721 132.763 71.3131 130.558 68.2066C128.454 64.9998 125.698 62.745 122.291 61.4423C118.984 60.0393 115.476 59.3378 111.769 59.3378C106.257 59.3378 101.547 60.7909 97.6387 63.697C93.7305 66.503 91.1751 70.311 89.9725 75.1212L81.5547 72.4155C83.1581 65.5008 86.7156 60.1395 92.2273 56.3314C97.8391 52.4232 104.353 50.469 111.769 50.469C115.777 50.469 119.635 51.0202 123.343 52.1225C127.151 53.2249 130.558 54.9285 133.565 57.2334C136.671 59.5382 139.126 62.5947 140.93 66.4028C142.734 70.1106 143.636 74.6201 143.636 79.9314V126.831H133.865ZM109.664 128.183C104.453 128.183 99.4926 127.332 94.7827 125.628C90.1729 123.924 86.415 121.369 83.5088 117.962C80.6027 114.454 79.1496 110.195 79.1496 105.185C79.1496 100.074 80.6027 95.815 83.5088 92.4078C86.415 89.0005 90.1729 86.4451 94.7827 84.7415C99.4926 83.0379 104.403 82.1861 109.514 82.1861C118.934 82.1861 126.099 84.2405 131.009 88.3492C135.92 92.4579 138.375 98.0697 138.375 105.185C138.375 112.3 135.92 117.912 131.009 122.02C126.199 126.129 119.084 128.183 109.664 128.183ZM111.919 119.916C118.132 119.916 123.393 118.663 127.702 116.158C132.011 113.653 134.166 109.995 134.166 105.185C134.166 100.375 132.011 96.7169 127.702 94.2116C123.393 91.7063 118.132 90.4536 111.919 90.4536C105.706 90.4536 100.344 91.6562 95.8349 94.0613C91.4256 96.4663 89.2209 100.174 89.2209 105.185C89.2209 110.095 91.4256 113.803 95.8349 116.308C100.344 118.713 105.706 119.916 111.919 119.916ZM173.298 126.981L142.483 51.6716H153.005L174.05 104.133C174.551 105.235 175.052 106.538 175.553 108.041C176.154 109.444 176.655 110.696 177.056 111.799C177.457 112.801 177.657 113.302 177.657 113.302C177.657 113.302 177.858 112.801 178.258 111.799C178.76 110.696 179.311 109.444 179.912 108.041C180.513 106.538 181.014 105.235 181.415 104.133L202.309 51.6716H212.681L181.866 126.981H173.298ZM245.574 128.183C238.459 128.183 232.095 126.58 226.484 123.373C220.872 120.066 216.412 115.507 213.105 109.694C209.898 103.782 208.295 96.9674 208.295 89.2511C208.295 83.539 209.197 78.328 211.001 73.618C212.905 68.8078 215.51 64.6991 218.817 61.2919C222.225 57.7845 226.183 55.1289 230.692 53.3251C235.302 51.4211 240.263 50.469 245.574 50.469C252.689 50.469 259.052 52.1225 264.664 55.4295C270.276 58.6363 274.685 63.1459 277.892 68.9582C281.199 74.7704 282.853 81.5348 282.853 89.2511C282.853 95.0634 281.901 100.375 279.997 105.185C278.193 109.895 275.587 114.003 272.18 117.511C268.873 120.918 264.915 123.574 260.305 125.478C255.796 127.282 250.885 128.183 245.574 128.183ZM245.574 119.164C249.482 119.164 253.09 118.513 256.397 117.21C259.804 115.807 262.71 113.803 265.115 111.197C267.621 108.592 269.525 105.435 270.827 101.727C272.23 98.0196 272.932 93.8608 272.932 89.2511C272.932 83.1381 271.729 77.877 269.324 73.4677C267.019 68.9582 263.812 65.5008 259.704 63.0958C255.595 60.6907 250.885 59.4881 245.574 59.4881C241.666 59.4881 238.008 60.1896 234.601 61.5926C231.294 62.8953 228.388 64.8495 225.882 67.455C223.477 70.0605 221.573 73.2172 220.17 76.925C218.867 80.5326 218.216 84.6413 218.216 89.2511C218.216 95.364 219.368 100.675 221.673 105.185C224.078 109.694 227.335 113.152 231.444 115.557C235.653 117.962 240.363 119.164 245.574 119.164ZM320.661 50.469H325.321V60.6907H318.707C312.795 60.6907 307.984 63.0456 304.277 67.7556C300.569 72.4656 298.715 78.5284 298.715 85.9441V126.831H288.944V51.6716H298.564V65.6512C300.769 60.7408 303.776 56.9828 307.584 54.3773C311.392 51.7718 315.751 50.469 320.661 50.469ZM337.733 51.6716V126.831H327.962V51.6716H337.733ZM332.772 34.2347C330.668 34.2347 328.914 33.5332 327.511 32.1303C326.108 30.6271 325.407 28.7732 325.407 26.5685C325.407 24.464 326.108 22.7103 327.511 21.3074C328.914 19.8042 330.668 19.0526 332.772 19.0526C334.977 19.0526 336.781 19.8042 338.184 21.3074C339.687 22.7103 340.439 24.464 340.439 26.5685C340.439 28.7732 339.687 30.6271 338.184 32.1303C336.781 33.5332 334.977 34.2347 332.772 34.2347ZM374.21 126.831C369.8 126.831 366.143 125.979 363.236 124.275C360.33 122.471 358.176 120.066 356.773 117.06C355.37 113.953 354.668 110.496 354.668 106.688V34.2347L364.439 27.0194V105.636C364.439 109.544 365.241 112.6 366.844 114.805C368.548 116.91 371.253 117.962 374.961 117.962H382.477V126.831H374.21ZM382.477 60.5403H340.388V51.6716H382.477V60.5403ZM415.396 128.183C408.681 128.183 402.669 126.58 397.357 123.373C392.046 120.066 387.837 115.507 384.731 109.694C381.724 103.782 380.221 96.9674 380.221 89.2511C380.221 83.2384 381.073 77.877 382.777 73.1671C384.58 68.3569 387.086 64.2983 390.293 60.9913C393.499 57.5841 397.257 54.9786 401.566 53.1748C405.875 51.371 410.585 50.469 415.696 50.469C422.21 50.469 428.022 52.0223 433.133 55.1289C438.244 58.2355 442.252 62.6448 445.159 68.3569C448.165 73.9688 449.668 80.5827 449.668 88.1989C449.668 88.8001 449.668 89.3513 449.668 89.8524C449.668 90.3534 449.618 90.8545 449.518 91.3555H385.933V83.088H443.655L439.446 89.8524C439.446 89.6519 439.446 89.4515 439.446 89.2511C439.446 89.0507 439.446 88.9003 439.446 88.8001C439.446 78.9794 437.142 71.6639 432.532 66.8537C428.022 61.9433 422.36 59.4881 415.546 59.4881C411.738 59.4881 408.281 60.1896 405.174 61.5926C402.067 62.8953 399.362 64.8495 397.057 67.455C394.852 70.0605 393.149 73.2172 391.946 76.925C390.743 80.5326 390.142 84.6413 390.142 89.2511C390.142 95.5644 391.295 100.976 393.6 105.485C395.904 109.895 398.961 113.302 402.769 115.707C406.677 118.012 411.036 119.164 415.847 119.164C419.454 119.164 422.811 118.613 425.918 117.511C429.024 116.308 431.83 114.454 434.336 111.949C436.941 109.344 439.096 105.886 440.799 101.577L449.217 105.485C446.812 111.197 443.806 115.707 440.198 119.014C436.59 122.321 432.632 124.676 428.323 126.079C424.114 127.482 419.805 128.183 415.396 128.183ZM467.184 126.831C465.54 126.831 464.718 126.243 464.718 125.069C464.718 123.777 465.892 122.955 468.241 122.603L471.764 122.074C474.347 121.722 476.109 121.135 477.048 120.313C477.988 119.373 478.751 117.671 479.338 115.204L503.295 11.6259C503.882 9.27722 503.882 7.69184 503.295 6.86978C502.708 5.9303 501.24 5.22569 498.891 4.75594L495.368 4.05133C493.842 3.69902 493.078 3.05312 493.078 2.11364C493.078 0.704403 494.135 -0.00021378 496.249 -0.00021378H529.894C537.763 -0.00021378 544.163 2.17235 549.095 6.51748C554.028 10.8626 556.494 16.4995 556.494 23.4283C556.494 30.0047 554.145 36.2288 549.448 42.1006C544.75 47.9724 538.467 52.2588 530.599 54.9598C530.012 55.0772 529.718 55.3708 529.718 55.8406C529.718 56.1929 530.012 56.4865 530.599 56.7213C536.706 58.9526 541.344 62.5344 544.515 67.4667C547.686 72.399 549.271 78.1534 549.271 84.7298C549.271 92.4806 547.216 99.5854 543.106 106.044C538.996 112.386 533.418 117.436 526.371 121.194C519.443 124.952 511.692 126.831 503.119 126.831H467.184ZM515.45 54.4313C520.617 54.4313 525.314 53.0808 529.542 50.3798C533.887 47.6788 537.352 44.0383 539.935 39.4583C542.519 34.7608 543.811 29.6524 543.811 24.1329C543.811 17.9088 542.225 13.0939 539.054 9.68825C536.001 6.16517 531.715 4.40363 526.195 4.40363C520.089 4.40363 516.507 6.75235 515.45 11.4498L507.875 44.7429C507.053 48.2659 507.229 50.7908 508.404 52.3175C509.578 53.7267 511.927 54.4313 515.45 54.4313ZM503.648 122.427C509.872 122.427 515.45 120.783 520.382 117.494C525.314 114.089 529.19 109.45 532.008 103.578C534.944 97.7065 536.412 91.13 536.412 83.849C536.412 75.8634 534.533 69.698 530.775 65.3529C527.135 61.0077 521.968 58.8352 515.274 58.8352C507.993 58.8352 503.706 61.9472 502.414 68.1713L492.726 110.272C490.847 118.375 494.488 122.427 503.648 122.427ZM594.068 128.183C586.953 128.183 580.589 126.58 574.977 123.373C569.365 120.066 564.906 115.507 561.599 109.694C558.392 103.782 556.789 96.9674 556.789 89.2511C556.789 83.539 557.691 78.328 559.495 73.618C561.399 68.8078 564.004 64.6991 567.311 61.2919C570.718 57.7845 574.677 55.1289 579.186 53.3251C583.796 51.4211 588.756 50.469 594.068 50.469C601.183 50.469 607.546 52.1225 613.158 55.4295C618.77 58.6363 623.179 63.1459 626.386 68.9582C629.693 74.7704 631.347 81.5348 631.347 89.2511C631.347 95.0634 630.394 100.375 628.49 105.185C626.687 109.895 624.081 114.003 620.674 117.511C617.367 120.918 613.409 123.574 608.799 125.478C604.289 127.282 599.379 128.183 594.068 128.183ZM594.068 119.164C597.976 119.164 601.584 118.513 604.891 117.21C608.298 115.807 611.204 113.803 613.609 111.197C616.114 108.592 618.018 105.435 619.321 101.727C620.724 98.0196 621.426 93.8608 621.426 89.2511C621.426 83.1381 620.223 77.877 617.818 73.4677C615.513 68.9582 612.306 65.5008 608.198 63.0958C604.089 60.6907 599.379 59.4881 594.068 59.4881C590.159 59.4881 586.502 60.1896 583.094 61.5926C579.787 62.8953 576.881 64.8495 574.376 67.455C571.971 70.0605 570.067 73.2172 568.664 76.925C567.361 80.5326 566.71 84.6413 566.71 89.2511C566.71 95.364 567.862 100.675 570.167 105.185C572.572 109.694 575.829 113.152 579.938 115.557C584.147 117.962 588.857 119.164 594.068 119.164ZM670.959 128.183C663.844 128.183 657.48 126.58 651.868 123.373C646.257 120.066 641.797 115.507 638.49 109.694C635.283 103.782 633.68 96.9674 633.68 89.2511C633.68 83.539 634.582 78.328 636.386 73.618C638.29 68.8078 640.895 64.6991 644.202 61.2919C647.609 57.7845 651.568 55.1289 656.077 53.3251C660.687 51.4211 665.648 50.469 670.959 50.469C678.074 50.469 684.437 52.1225 690.049 55.4295C695.661 58.6363 700.07 63.1459 703.277 68.9582C706.584 74.7704 708.238 81.5348 708.238 89.2511C708.238 95.0634 707.286 100.375 705.382 105.185C703.578 109.895 700.972 114.003 697.565 117.511C694.258 120.918 690.3 123.574 685.69 125.478C681.18 127.282 676.27 128.183 670.959 128.183ZM670.959 119.164C674.867 119.164 678.475 118.513 681.782 117.21C685.189 115.807 688.095 113.803 690.5 111.197C693.005 108.592 694.909 105.435 696.212 101.727C697.615 98.0196 698.317 93.8608 698.317 89.2511C698.317 83.1381 697.114 77.877 694.709 73.4677C692.404 68.9582 689.197 65.5008 685.089 63.0958C680.98 60.6907 676.27 59.4881 670.959 59.4881C667.051 59.4881 663.393 60.1896 659.986 61.5926C656.679 62.8953 653.772 64.8495 651.267 67.455C648.862 70.0605 646.958 73.2172 645.555 76.925C644.252 80.5326 643.601 84.6413 643.601 89.2511C643.601 95.364 644.753 100.675 647.058 105.185C649.463 109.694 652.72 113.152 656.829 115.557C661.038 117.962 665.748 119.164 670.959 119.164ZM760.477 126.831L722.747 87.2969L758.523 51.6716H770.698L731.315 89.8524L731.616 83.9899L772.652 126.831H760.477ZM714.329 126.831V21.608H724.1V126.831H714.329ZM796.387 128.183C791.477 128.183 786.867 127.432 782.558 125.929C778.349 124.425 774.692 121.97 771.585 118.563C768.478 115.056 766.174 110.396 764.67 104.584L773.238 102.178C774.241 106.287 775.894 109.594 778.199 112.099C780.604 114.605 783.36 116.409 786.466 117.511C789.573 118.613 792.83 119.164 796.237 119.164C802.15 119.164 806.86 118.012 810.367 115.707C813.874 113.402 815.628 110.546 815.628 107.139C815.628 103.732 814.125 101.126 811.119 99.3224C808.112 97.4184 803.553 95.7148 797.44 94.2116L789.773 92.2574C781.857 90.2532 776.195 87.3972 772.788 83.6893C769.38 79.9815 767.677 75.6223 767.677 70.6117C767.677 66.7034 768.779 63.2461 770.984 60.2397C773.289 57.2334 776.445 54.8784 780.454 53.1748C784.462 51.371 789.072 50.469 794.283 50.469C799.093 50.469 803.653 51.3208 807.962 53.0245C812.271 54.7281 815.929 57.3336 818.935 60.841C821.941 64.3484 823.846 68.8579 824.647 74.3696L815.929 76.1734C814.726 69.9603 812.071 65.6512 807.962 63.2461C803.953 60.841 799.394 59.6384 794.283 59.6384C789.573 59.6384 785.665 60.6406 782.558 62.6448C779.452 64.649 777.898 67.3047 777.898 70.6117C777.898 73.117 778.7 75.2214 780.303 76.925C782.007 78.5284 784.162 79.8813 786.767 80.9836C789.473 81.9857 792.329 82.8876 795.335 83.6893L803.001 85.6434C810.818 87.6477 816.53 90.3534 820.138 93.7606C823.846 97.0676 825.699 101.477 825.699 106.989C825.699 110.997 824.497 114.605 822.092 117.811C819.687 121.018 816.28 123.574 811.87 125.478C807.461 127.282 802.3 128.183 796.387 128.183Z" fill="#363636"/>
</svg>
